
		<svg xmlns="http://www.w3.org/2000/svg" xmlns:xlink="http://www.w3.org/1999/xlink" version="1.1" width="3250" height="1675">
			
			<g transform="scale(12.5) translate(10, 10)">
				<defs id="SvgjsDefs1273"/><g id="SvgjsG1274" featureKey="root" fill="#000"/><g id="SvgjsG1275" featureKey="container1" fill="#000" transform="matrix(1,0,0,1,0,5)"><rect xmlns="http://www.w3.org/2000/svg" width="240" height="94"/></g><g id="SvgjsG1276" featureKey="text1" fill="#ffffff" transform="matrix(2.134797954560461,0,0,2.134797954560461,20,9.126251070937428)"><path d="M0 24 l0 -10 l1.42 0 l0 10 l-1.42 0 z M1.42 12.12 l0 1.44 l-1.42 0 l0 -1.44 l1.42 0 z M7.962 14 l1.28 0 c0.04 0 0.08 0.02 0.08 0.06 l0 1.46 c1.08 -1.02 2.26 -1.52 3.58 -1.52 l0.24 0 c1.9 0 3.42 0.92 4.52 2.76 c0.36 0.72 0.52 1.48 0.52 2.3 l0 4.88 c0 0.04 -0.02 0.06 -0.06 0.06 l-1.28 0 c-0.04 0 -0.08 -0.02 -0.08 -0.06 l0 -4.94 c0 -1.56 -0.78 -2.72 -2.36 -3.48 c-0.48 -0.16 -0.94 -0.24 -1.36 -0.24 c-1.62 0 -2.8 0.84 -3.54 2.52 c-0.12 0.42 -0.18 0.78 -0.18 1.06 l0 5.08 c0 0.04 -0.04 0.06 -0.08 0.06 l-1.28 0 c-0.04 0 -0.06 -0.02 -0.06 -0.06 l0 -9.88 c0 -0.04 0.02 -0.06 0.06 -0.06 z M29.664 14 l0.24 0 c1.76 0 3.2 0.82 4.3 2.42 c0.5 0.8 0.74 1.66 0.74 2.62 c0 1.8 -0.86 3.24 -2.58 4.32 c-0.78 0.42 -1.54 0.64 -2.24 0.64 l-0.7 0 c-1.26 0 -2.48 -0.6 -3.66 -1.84 c-0.74 -0.98 -1.1 -2 -1.1 -3.06 l0 -0.28 c0 -1.68 0.86 -3.08 2.62 -4.22 c0.82 -0.4 1.62 -0.6 2.38 -0.6 z M26.084000000000003 18.86 l0 0.32 c0 1.2 0.6 2.2 1.8 3.04 c0.64 0.34 1.22 0.5 1.74 0.5 l0.36 0 c1.26 0 2.32 -0.68 3.16 -2.02 c0.26 -0.6 0.38 -1.14 0.38 -1.66 l0 -0.04 c0 -1.56 -0.78 -2.72 -2.36 -3.48 c-0.48 -0.16 -0.94 -0.24 -1.36 -0.24 c-1.62 0 -2.8 0.84 -3.54 2.52 c-0.12 0.42 -0.18 0.78 -0.18 1.06 z M41.506 14 l1.32 0 c0.06 0 0.08 0.04 0.08 0.08 l0 1.52 c1.12 -1.06 2.36 -1.6 3.74 -1.6 l0.26 0 c1.82 0 3.32 0.84 4.48 2.52 c0.52 0.82 0.78 1.74 0.78 2.74 c0 1.98 -0.98 3.54 -2.96 4.66 c-0.82 0.38 -1.64 0.54 -2.42 0.54 c-1.42 0 -2.72 -0.52 -3.88 -1.58 l0 5.02 c0 0.06 -0.02 0.08 -0.08 0.08 l-1.32 0 c-0.06 0 -0.08 -0.02 -0.08 -0.08 l0 -13.82 c0 -0.06 0.04 -0.08 0.08 -0.08 z M42.906 19.06 l0 0.28 c0 1.46 0.76 2.58 2.26 3.42 c0.54 0.22 1.02 0.34 1.44 0.34 l0.36 0 c1.32 0 2.42 -0.7 3.3 -2.1 c0.28 -0.62 0.4 -1.2 0.4 -1.74 l0 -0.04 c0 -1.62 -0.82 -2.82 -2.48 -3.62 c-0.5 -0.18 -0.98 -0.28 -1.4 -0.28 c-1.68 0 -2.92 0.88 -3.7 2.64 c-0.12 0.44 -0.18 0.8 -0.18 1.1 z M62.248000000000005 14 l6.6 0 c0.04 0 0.08 0.02 0.08 0.06 l0 1.18 c0 0.04 -0.04 0.06 -0.08 0.06 l-6.66 0 c-0.84 0 -1.44 0.38 -1.82 1.14 c-0.04 0.16 -0.06 0.3 -0.06 0.42 c0.22 0.98 0.88 1.46 1.98 1.46 l2.86 0 c1.76 0 2.98 0.68 3.64 2.04 c0.1 0.28 0.14 0.52 0.14 0.72 l0 0.1 c0 1.3 -0.9 2.2 -2.66 2.72 c-0.34 0.08 -0.72 0.1 -1.16 0.1 l-6.4 0 c-0.04 0 -0.06 -0.02 -0.06 -0.06 l0 -1.18 c0 -0.04 0.02 -0.06 0.06 -0.06 l6.22 0 c1.28 0 2.06 -0.44 2.32 -1.28 l0.02 -0.2 l0 -0.12 c0 -0.62 -0.46 -1.08 -1.4 -1.4 c-0.3 -0.04 -0.56 -0.06 -0.82 -0.06 l-2.96 0 c-1.26 0 -2.28 -0.52 -3.06 -1.54 c-0.26 -0.38 -0.38 -0.82 -0.38 -1.28 c0 -1.24 0.84 -2.14 2.48 -2.68 c0.38 -0.1 0.74 -0.14 1.12 -0.14 z M75.41 24 l0 -10 l1.42 0 l0 10 l-1.42 0 z M76.83 12.12 l0 1.44 l-1.42 0 l0 -1.44 l1.42 0 z M88.312 14 l0.24 0 c1.32 0 2.52 0.5 3.62 1.52 l0 -1.46 c0 -0.04 0.04 -0.06 0.08 -0.06 l1.28 0 c0.04 0 0.06 0.02 0.06 0.06 l0 9.88 c0 0.04 -0.02 0.06 -0.06 0.06 l-1.28 0 c-0.04 0 -0.08 -0.02 -0.08 -0.06 l0 -1.46 c-1.1 1.02 -2.22 1.52 -3.4 1.52 l-0.7 0 c-1.26 0 -2.48 -0.6 -3.66 -1.84 c-0.74 -0.98 -1.1 -2 -1.1 -3.06 l0 -0.28 c0 -1.68 0.86 -3.08 2.62 -4.22 c0.82 -0.4 1.62 -0.6 2.38 -0.6 z M84.732 18.86 l0 0.32 c0 1.2 0.6 2.2 1.8 3.04 c0.64 0.34 1.22 0.5 1.74 0.5 l0.36 0 c1.1 0 2.06 -0.56 2.9 -1.64 c0.42 -0.64 0.64 -1.34 0.64 -2.14 c0 -1.42 -0.74 -2.52 -2.2 -3.34 c-0.54 -0.2 -1.04 -0.32 -1.52 -0.32 c-1.62 0 -2.8 0.84 -3.54 2.52 c-0.12 0.42 -0.18 0.78 -0.18 1.06 z"/></g>
			</g>
		</svg>
	